<mxfile host="app.diagrams.net" agent="Mozilla/5.0 (Macintosh; Intel Mac OS X 10_15_7) AppleWebKit/537.36 (KHTML, like Gecko) Chrome/135.0.0.0 Safari/537.36" version="26.2.13">
  <diagram name="第 1 页" id="9HLTsAWd44544eCJhHcl">
    <mxGraphModel dx="876" dy="1619" grid="1" gridSize="10" guides="1" tooltips="1" connect="1" arrows="1" fold="1" page="1" pageScale="1" pageWidth="827" pageHeight="1169" math="0" shadow="0">
      <root>
        <mxCell id="0" />
        <mxCell id="1" parent="0" />
        <mxCell id="cRpgGnE1zXx4gKgvkWlv-2" value="实用工具集索引" style="whiteSpace=wrap;html=1;fillColor=#dae8fc;strokeColor=#6c8ebf;strokeWidth=2;fontSize=14;" parent="1" vertex="1">
          <mxGeometry x="180" y="180" width="120" height="60" as="geometry" />
        </mxCell>
        <mxCell id="cRpgGnE1zXx4gKgvkWlv-4" value="Wireshark统计图" style="whiteSpace=wrap;html=1;strokeColor=#36393d;strokeWidth=2;align=center;verticalAlign=middle;fontFamily=Helvetica;fontSize=14;fillColor=#ffff88;" parent="1" vertex="1">
          <mxGeometry x="380" y="-4" width="120" height="60" as="geometry" />
        </mxCell>
        <mxCell id="cRpgGnE1zXx4gKgvkWlv-5" value="eBPF、perf-tools系列、火焰图" style="whiteSpace=wrap;html=1;strokeColor=#d6b656;strokeWidth=2;align=center;verticalAlign=middle;fontFamily=Helvetica;fontSize=14;fillColor=#fff2cc;" parent="1" vertex="1">
          <mxGeometry x="400" y="76" width="120" height="60" as="geometry" />
        </mxCell>
        <mxCell id="cRpgGnE1zXx4gKgvkWlv-6" value="系统命令和工具" style="whiteSpace=wrap;html=1;strokeColor=#36393d;strokeWidth=2;align=center;verticalAlign=middle;fontFamily=Helvetica;fontSize=14;fillColor=#ffcc99;" parent="1" vertex="1">
          <mxGeometry x="400" y="236" width="120" height="60" as="geometry" />
        </mxCell>
        <mxCell id="cRpgGnE1zXx4gKgvkWlv-49" style="edgeStyle=none;shape=connector;rounded=0;orthogonalLoop=1;jettySize=auto;html=1;entryX=0.5;entryY=0;entryDx=0;entryDy=0;strokeColor=#00FF00;strokeWidth=2;align=center;verticalAlign=middle;fontFamily=Helvetica;fontSize=14;fontColor=default;labelBackgroundColor=none;endArrow=classic;flowAnimation=1;" parent="1" source="cRpgGnE1zXx4gKgvkWlv-7" target="cRpgGnE1zXx4gKgvkWlv-25" edge="1">
          <mxGeometry relative="1" as="geometry" />
        </mxCell>
        <mxCell id="cRpgGnE1zXx4gKgvkWlv-7" value="扩展工具" style="whiteSpace=wrap;html=1;strokeColor=#0e8088;strokeWidth=2;align=center;verticalAlign=middle;fontFamily=Helvetica;fontSize=14;fillColor=#b0e3e6;" parent="1" vertex="1">
          <mxGeometry x="366" y="357" width="120" height="60" as="geometry" />
        </mxCell>
        <mxCell id="cRpgGnE1zXx4gKgvkWlv-8" value="" style="edgeStyle=none;orthogonalLoop=1;jettySize=auto;html=1;rounded=0;fontFamily=Helvetica;fontSize=14;fontColor=default;exitX=1;exitY=0.25;exitDx=0;exitDy=0;entryX=0;entryY=1;entryDx=0;entryDy=0;strokeWidth=2;strokeColor=#FF3333;flowAnimation=1;" parent="1" source="cRpgGnE1zXx4gKgvkWlv-2" target="cRpgGnE1zXx4gKgvkWlv-4" edge="1">
          <mxGeometry width="80" relative="1" as="geometry">
            <mxPoint x="340" y="170" as="sourcePoint" />
            <mxPoint x="420" y="170" as="targetPoint" />
            <Array as="points" />
          </mxGeometry>
        </mxCell>
        <mxCell id="cRpgGnE1zXx4gKgvkWlv-10" value="" style="edgeStyle=none;orthogonalLoop=1;jettySize=auto;html=1;rounded=0;strokeColor=#FF3333;strokeWidth=2;align=center;verticalAlign=middle;fontFamily=Helvetica;fontSize=14;fontColor=default;labelBackgroundColor=default;endArrow=classic;flowAnimation=1;exitX=1;exitY=0.5;exitDx=0;exitDy=0;entryX=0;entryY=0.5;entryDx=0;entryDy=0;" parent="1" source="cRpgGnE1zXx4gKgvkWlv-2" target="cRpgGnE1zXx4gKgvkWlv-5" edge="1">
          <mxGeometry width="80" relative="1" as="geometry">
            <mxPoint x="330" y="180" as="sourcePoint" />
            <mxPoint x="410" y="180" as="targetPoint" />
            <Array as="points" />
          </mxGeometry>
        </mxCell>
        <mxCell id="cRpgGnE1zXx4gKgvkWlv-11" value="" style="edgeStyle=none;orthogonalLoop=1;jettySize=auto;html=1;rounded=0;strokeColor=#FF3333;strokeWidth=2;align=center;verticalAlign=middle;fontFamily=Helvetica;fontSize=14;fontColor=default;labelBackgroundColor=default;endArrow=classic;flowAnimation=1;exitX=1;exitY=0.75;exitDx=0;exitDy=0;entryX=0;entryY=0.25;entryDx=0;entryDy=0;" parent="1" source="cRpgGnE1zXx4gKgvkWlv-2" target="cRpgGnE1zXx4gKgvkWlv-6" edge="1">
          <mxGeometry width="80" relative="1" as="geometry">
            <mxPoint x="340" y="220" as="sourcePoint" />
            <mxPoint x="420" y="220" as="targetPoint" />
            <Array as="points" />
          </mxGeometry>
        </mxCell>
        <mxCell id="cRpgGnE1zXx4gKgvkWlv-12" value="" style="edgeStyle=none;orthogonalLoop=1;jettySize=auto;html=1;rounded=0;strokeColor=#FF3333;strokeWidth=2;align=center;verticalAlign=middle;fontFamily=Helvetica;fontSize=14;fontColor=default;labelBackgroundColor=default;endArrow=classic;flowAnimation=1;exitX=1;exitY=1;exitDx=0;exitDy=0;entryX=0.067;entryY=0;entryDx=0;entryDy=0;entryPerimeter=0;" parent="1" source="cRpgGnE1zXx4gKgvkWlv-2" target="cRpgGnE1zXx4gKgvkWlv-7" edge="1">
          <mxGeometry width="80" relative="1" as="geometry">
            <mxPoint x="340" y="250" as="sourcePoint" />
            <mxPoint x="420" y="250" as="targetPoint" />
            <Array as="points" />
          </mxGeometry>
        </mxCell>
        <mxCell id="cRpgGnE1zXx4gKgvkWlv-17" value="gperftools、sanitizer系列" style="whiteSpace=wrap;html=1;strokeColor=#B09500;strokeWidth=2;align=center;verticalAlign=middle;fontFamily=Helvetica;fontSize=14;labelBackgroundColor=none;fillColor=#e3c800;fontColor=#000000;" parent="1" vertex="1">
          <mxGeometry x="400" y="156" width="120" height="60" as="geometry" />
        </mxCell>
        <mxCell id="cRpgGnE1zXx4gKgvkWlv-18" value="" style="edgeStyle=none;orthogonalLoop=1;jettySize=auto;html=1;rounded=0;strokeColor=#FF3333;strokeWidth=2;align=center;verticalAlign=middle;fontFamily=Helvetica;fontSize=14;fontColor=default;labelBackgroundColor=none;endArrow=classic;flowAnimation=1;exitX=0.992;exitY=0.65;exitDx=0;exitDy=0;exitPerimeter=0;entryX=0;entryY=0.5;entryDx=0;entryDy=0;" parent="1" source="cRpgGnE1zXx4gKgvkWlv-2" target="cRpgGnE1zXx4gKgvkWlv-17" edge="1">
          <mxGeometry width="80" relative="1" as="geometry">
            <mxPoint x="320" y="200" as="sourcePoint" />
            <mxPoint x="400" y="200" as="targetPoint" />
            <Array as="points" />
          </mxGeometry>
        </mxCell>
        <mxCell id="cRpgGnE1zXx4gKgvkWlv-25" value="pwndbg" style="ellipse;whiteSpace=wrap;html=1;strokeColor=#2D7600;strokeWidth=2;align=center;verticalAlign=middle;fontFamily=Helvetica;fontSize=14;fontColor=#ffffff;labelBackgroundColor=none;fillColor=#60a917;" parent="1" vertex="1">
          <mxGeometry x="414.75" y="467" width="62.5" height="50" as="geometry" />
        </mxCell>
        <mxCell id="cRpgGnE1zXx4gKgvkWlv-28" value="ss小技巧" style="ellipse;whiteSpace=wrap;html=1;strokeColor=#b85450;strokeWidth=2;align=center;verticalAlign=middle;fontFamily=Helvetica;fontSize=14;labelBackgroundColor=none;fillColor=#f8cecc;" parent="1" vertex="1">
          <mxGeometry x="547.5" y="166" width="90" height="40" as="geometry" />
        </mxCell>
        <mxCell id="cRpgGnE1zXx4gKgvkWlv-29" value="硬盘相关&lt;div&gt;工具命令&lt;/div&gt;" style="ellipse;whiteSpace=wrap;html=1;strokeWidth=2;align=center;verticalAlign=middle;fontFamily=Helvetica;fontSize=14;labelBackgroundColor=none;fillColor=#d5e8d4;strokeColor=#82b366;" parent="1" vertex="1">
          <mxGeometry x="598.5" y="216" width="82.5" height="50" as="geometry" />
        </mxCell>
        <mxCell id="cRpgGnE1zXx4gKgvkWlv-30" value="Compiler Explorer" style="ellipse;whiteSpace=wrap;html=1;strokeColor=#9673a6;strokeWidth=2;align=center;verticalAlign=middle;fontFamily=Helvetica;fontSize=14;labelBackgroundColor=none;fillColor=#e1d5e7;" parent="1" vertex="1">
          <mxGeometry x="533.5" y="337" width="70" height="50" as="geometry" />
        </mxCell>
        <mxCell id="cRpgGnE1zXx4gKgvkWlv-31" value="C++ Insights" style="ellipse;whiteSpace=wrap;html=1;strokeColor=#9673a6;strokeWidth=2;align=center;verticalAlign=middle;fontFamily=Helvetica;fontSize=14;labelBackgroundColor=none;fillColor=#e1d5e7;" parent="1" vertex="1">
          <mxGeometry x="596" y="387" width="87.5" height="50" as="geometry" />
        </mxCell>
        <mxCell id="cRpgGnE1zXx4gKgvkWlv-35" value="calltree.pl" style="ellipse;whiteSpace=wrap;html=1;strokeColor=#d6b656;strokeWidth=2;align=center;verticalAlign=middle;fontFamily=Helvetica;fontSize=14;labelBackgroundColor=none;fillColor=#fff2cc;" parent="1" vertex="1">
          <mxGeometry x="496" y="487" width="70" height="50" as="geometry" />
        </mxCell>
        <mxCell id="cRpgGnE1zXx4gKgvkWlv-36" value="cpptree.pl" style="ellipse;whiteSpace=wrap;html=1;strokeColor=#d6b656;strokeWidth=2;align=center;verticalAlign=middle;fontFamily=Helvetica;fontSize=14;labelBackgroundColor=none;fillColor=#fff2cc;" parent="1" vertex="1">
          <mxGeometry x="523.5" y="427" width="80" height="50" as="geometry" />
        </mxCell>
        <mxCell id="cRpgGnE1zXx4gKgvkWlv-38" value="" style="edgeStyle=none;orthogonalLoop=1;jettySize=auto;html=1;rounded=0;strokeColor=#3333FF;strokeWidth=2;align=center;verticalAlign=middle;fontFamily=Helvetica;fontSize=14;fontColor=default;labelBackgroundColor=none;endArrow=classic;flowAnimation=1;entryX=0;entryY=1;entryDx=0;entryDy=0;fillColor=#6a00ff;" parent="1" target="cRpgGnE1zXx4gKgvkWlv-28" edge="1">
          <mxGeometry width="80" relative="1" as="geometry">
            <mxPoint x="520" y="246" as="sourcePoint" />
            <mxPoint x="600" y="246" as="targetPoint" />
            <Array as="points" />
          </mxGeometry>
        </mxCell>
        <mxCell id="cRpgGnE1zXx4gKgvkWlv-39" value="" style="edgeStyle=none;orthogonalLoop=1;jettySize=auto;html=1;rounded=0;strokeColor=#3333FF;strokeWidth=2;align=center;verticalAlign=middle;fontFamily=Helvetica;fontSize=14;fontColor=default;labelBackgroundColor=none;endArrow=classic;flowAnimation=1;exitX=1;exitY=0.5;exitDx=0;exitDy=0;entryX=0;entryY=0.5;entryDx=0;entryDy=0;" parent="1" source="cRpgGnE1zXx4gKgvkWlv-6" target="cRpgGnE1zXx4gKgvkWlv-29" edge="1">
          <mxGeometry width="80" relative="1" as="geometry">
            <mxPoint x="540" y="266" as="sourcePoint" />
            <mxPoint x="620" y="266" as="targetPoint" />
            <Array as="points" />
          </mxGeometry>
        </mxCell>
        <mxCell id="cRpgGnE1zXx4gKgvkWlv-41" value="" style="edgeStyle=none;orthogonalLoop=1;jettySize=auto;html=1;rounded=0;strokeColor=#00FF00;strokeWidth=2;align=center;verticalAlign=middle;fontFamily=Helvetica;fontSize=14;fontColor=default;labelBackgroundColor=none;endArrow=classic;flowAnimation=1;exitX=1;exitY=0.25;exitDx=0;exitDy=0;entryX=-0.021;entryY=0.38;entryDx=0;entryDy=0;entryPerimeter=0;" parent="1" source="cRpgGnE1zXx4gKgvkWlv-7" target="cRpgGnE1zXx4gKgvkWlv-30" edge="1">
          <mxGeometry width="80" relative="1" as="geometry">
            <mxPoint x="496" y="367" as="sourcePoint" />
            <mxPoint x="576" y="367" as="targetPoint" />
            <Array as="points" />
          </mxGeometry>
        </mxCell>
        <mxCell id="cRpgGnE1zXx4gKgvkWlv-43" value="" style="edgeStyle=none;orthogonalLoop=1;jettySize=auto;html=1;rounded=0;strokeColor=#00FF00;strokeWidth=2;align=center;verticalAlign=middle;fontFamily=Helvetica;fontSize=14;fontColor=default;labelBackgroundColor=none;endArrow=classic;flowAnimation=1;exitX=1;exitY=0.5;exitDx=0;exitDy=0;" parent="1" source="cRpgGnE1zXx4gKgvkWlv-7" edge="1">
          <mxGeometry width="80" relative="1" as="geometry">
            <mxPoint x="526" y="407" as="sourcePoint" />
            <mxPoint x="596" y="407" as="targetPoint" />
            <Array as="points" />
          </mxGeometry>
        </mxCell>
        <mxCell id="cRpgGnE1zXx4gKgvkWlv-46" value="" style="edgeStyle=none;orthogonalLoop=1;jettySize=auto;html=1;rounded=0;strokeColor=#00FF00;strokeWidth=2;align=center;verticalAlign=middle;fontFamily=Helvetica;fontSize=14;fontColor=default;labelBackgroundColor=none;endArrow=classic;flowAnimation=1;exitX=0.85;exitY=1.033;exitDx=0;exitDy=0;exitPerimeter=0;" parent="1" source="cRpgGnE1zXx4gKgvkWlv-7" target="cRpgGnE1zXx4gKgvkWlv-35" edge="1">
          <mxGeometry width="80" relative="1" as="geometry">
            <mxPoint x="466" y="437" as="sourcePoint" />
            <mxPoint x="546" y="437" as="targetPoint" />
            <Array as="points" />
          </mxGeometry>
        </mxCell>
        <mxCell id="cRpgGnE1zXx4gKgvkWlv-48" value="" style="edgeStyle=none;orthogonalLoop=1;jettySize=auto;html=1;rounded=0;strokeColor=#00FF00;strokeWidth=2;align=center;verticalAlign=middle;fontFamily=Helvetica;fontSize=14;fontColor=default;labelBackgroundColor=none;endArrow=classic;flowAnimation=1;exitX=1;exitY=0.75;exitDx=0;exitDy=0;entryX=0.013;entryY=0.24;entryDx=0;entryDy=0;entryPerimeter=0;" parent="1" source="cRpgGnE1zXx4gKgvkWlv-7" target="cRpgGnE1zXx4gKgvkWlv-36" edge="1">
          <mxGeometry width="80" relative="1" as="geometry">
            <mxPoint x="496" y="407" as="sourcePoint" />
            <mxPoint x="576" y="407" as="targetPoint" />
            <Array as="points" />
          </mxGeometry>
        </mxCell>
        <mxCell id="7cE2SFHwFAR3iqkUsJ3R-5" value="网卡相关&lt;div&gt;工具命令&lt;/div&gt;" style="ellipse;whiteSpace=wrap;html=1;strokeWidth=2;align=center;verticalAlign=middle;fontFamily=Helvetica;fontSize=14;labelBackgroundColor=none;fillColor=#d5e8d4;strokeColor=#82b366;" vertex="1" parent="1">
          <mxGeometry x="580" y="280" width="82.5" height="50" as="geometry" />
        </mxCell>
        <mxCell id="7cE2SFHwFAR3iqkUsJ3R-7" value="" style="edgeStyle=none;orthogonalLoop=1;jettySize=auto;html=1;rounded=0;strokeColor=#3333FF;strokeWidth=2;align=center;verticalAlign=middle;fontFamily=Helvetica;fontSize=14;fontColor=default;labelBackgroundColor=none;endArrow=classic;flowAnimation=1;exitX=1;exitY=0.733;exitDx=0;exitDy=0;entryX=0;entryY=0.5;entryDx=0;entryDy=0;exitPerimeter=0;" edge="1" parent="1" source="cRpgGnE1zXx4gKgvkWlv-6" target="7cE2SFHwFAR3iqkUsJ3R-5">
          <mxGeometry width="80" relative="1" as="geometry">
            <mxPoint x="530" y="276" as="sourcePoint" />
            <mxPoint x="609" y="251" as="targetPoint" />
            <Array as="points" />
          </mxGeometry>
        </mxCell>
        <mxCell id="7cE2SFHwFAR3iqkUsJ3R-8" value="画图工具" style="ellipse;whiteSpace=wrap;html=1;strokeColor=#006EAF;strokeWidth=2;align=center;verticalAlign=middle;fontFamily=Helvetica;fontSize=14;labelBackgroundColor=none;fillColor=#1ba1e2;fontColor=#ffffff;" vertex="1" parent="1">
          <mxGeometry x="320" y="477" width="72.5" height="50" as="geometry" />
        </mxCell>
        <mxCell id="7cE2SFHwFAR3iqkUsJ3R-9" style="edgeStyle=none;shape=connector;rounded=0;orthogonalLoop=1;jettySize=auto;html=1;entryX=0.69;entryY=0;entryDx=0;entryDy=0;strokeColor=#00FF00;strokeWidth=2;align=center;verticalAlign=middle;fontFamily=Helvetica;fontSize=14;fontColor=default;labelBackgroundColor=none;endArrow=classic;flowAnimation=1;exitX=0.25;exitY=1;exitDx=0;exitDy=0;entryPerimeter=0;" edge="1" parent="1" source="cRpgGnE1zXx4gKgvkWlv-7" target="7cE2SFHwFAR3iqkUsJ3R-8">
          <mxGeometry relative="1" as="geometry">
            <mxPoint x="444" y="427" as="sourcePoint" />
            <mxPoint x="456" y="477" as="targetPoint" />
          </mxGeometry>
        </mxCell>
      </root>
    </mxGraphModel>
  </diagram>
</mxfile>
